<svg width="500" height="500" viewBox="0 0 500 500" fill="none" xmlns="http://www.w3.org/2000/svg">
<rect width="500" height="500" fill="url(#paint0_linear_6_39)"/>
<path fill-rule="evenodd" clip-rule="evenodd" d="M250 47.0006C136.183 47.2703 44 139.62 44 253.5C44 367.547 136.453 460 250.5 460C364.547 460 457 367.547 457 253.5C457 173.909 411.972 104.835 346 70.3621V72.6222C410.828 106.921 455 175.052 455 253.5C455 366.442 363.442 458 250.5 458C137.558 458 46 366.442 46 253.5C46 140.724 137.288 49.2703 250 49.0006V47.0006Z" fill="white"/>
<path d="M128.52 236H93.45V233.27H98.49V189.73H93.45V187H127.54V197.78H124.81V189.73H101.36V209.89H124.81V212.69H101.36V233.27H125.79V225.22H128.52V236ZM134 253.5V250.77H138.69V212.48H133.44V209.75H141C141 210.823 141.024 211.897 141.07 212.97C141.164 213.997 141.21 215.023 141.21 216.05C142.004 214.23 143.38 212.643 145.34 211.29C147.3 209.937 149.68 209.26 152.48 209.26C154.347 209.26 156.12 209.61 157.8 210.31C159.48 211.01 160.95 211.99 162.21 213.25C163.47 214.51 164.45 215.98 165.15 217.66C165.85 219.293 166.2 221.043 166.2 222.91C166.2 224.777 165.85 226.55 165.15 228.23C164.45 229.91 163.47 231.357 162.21 232.57C160.95 233.783 159.48 234.763 157.8 235.51C156.12 236.21 154.347 236.56 152.48 236.56C151.08 236.56 149.774 236.373 148.56 236C147.347 235.673 146.274 235.183 145.34 234.53C144.36 233.923 143.544 233.27 142.89 232.57C142.284 231.823 141.817 231.03 141.49 230.19C141.49 230.657 141.49 231.123 141.49 231.59C141.537 232.01 141.56 232.43 141.56 232.85V250.77H147.51V253.5H134ZM152.48 212.06C150.894 212.06 149.424 212.34 148.07 212.9C146.764 213.46 145.62 214.23 144.64 215.21C143.66 216.19 142.89 217.357 142.33 218.71C141.817 220.017 141.56 221.417 141.56 222.91C141.56 224.45 141.84 225.897 142.4 227.25C142.96 228.557 143.754 229.723 144.78 230.75C145.76 231.683 146.904 232.43 148.21 232.99C149.517 233.503 150.94 233.76 152.48 233.76C153.927 233.76 155.304 233.503 156.61 232.99C157.917 232.43 159.06 231.683 160.04 230.75C161.067 229.77 161.86 228.603 162.42 227.25C163.027 225.897 163.33 224.45 163.33 222.91C163.33 221.323 163.027 219.853 162.42 218.5C161.86 217.147 161.067 215.98 160.04 215C159.06 214.113 157.917 213.413 156.61 212.9C155.304 212.34 153.927 212.06 152.48 212.06ZM184.616 236H171.106V233.27H176.566V186.23H171.386V183.5H179.436V213.39L179.226 216.54C180.206 214.3 181.7 212.527 183.706 211.22C185.713 209.913 188.046 209.237 190.706 209.19C193.273 209.19 195.303 209.913 196.796 211.36C198.29 212.807 199.083 214.697 199.176 217.03V233.27H204.356V236H190.846V233.27H196.306V217.8C196.213 216.26 195.653 214.953 194.626 213.88C193.646 212.76 192.176 212.153 190.216 212.06C188.77 212.06 187.393 212.293 186.086 212.76C184.78 213.227 183.66 213.88 182.726 214.72C181.7 215.607 180.883 216.633 180.276 217.8C179.716 218.967 179.436 220.25 179.436 221.65V233.27H184.616V236ZM222.971 211.99C221.197 211.99 219.564 212.363 218.071 213.11C216.624 213.857 215.411 214.86 214.431 216.12C213.497 217.333 212.844 218.71 212.471 220.25C212.097 221.743 212.074 223.283 212.401 224.87C215.574 223.61 218.724 222.373 221.851 221.16C225.024 219.9 228.197 218.64 231.371 217.38C230.531 215.793 229.364 214.51 227.871 213.53C226.424 212.503 224.791 211.99 222.971 211.99ZM232.141 232.85C230.927 233.97 229.551 234.857 228.011 235.51C226.471 236.163 224.791 236.49 222.971 236.49C221.057 236.49 219.261 236.14 217.581 235.44C215.947 234.74 214.501 233.76 213.241 232.5C211.981 231.24 211.001 229.793 210.301 228.16C209.601 226.527 209.251 224.753 209.251 222.84C209.251 220.973 209.601 219.2 210.301 217.52C211.001 215.84 211.981 214.393 213.241 213.18C214.501 211.967 215.947 211.01 217.581 210.31C219.261 209.563 221.057 209.19 222.971 209.19C224.417 209.19 225.794 209.447 227.101 209.96C228.407 210.427 229.574 211.127 230.601 212.06C231.581 212.9 232.444 213.927 233.191 215.14C233.937 216.307 234.544 217.59 235.011 218.99C231.371 220.437 227.731 221.86 224.091 223.26C220.497 224.66 216.881 226.107 213.241 227.6C214.081 229.42 215.364 230.89 217.091 232.01C218.817 233.13 220.777 233.69 222.971 233.69C224.417 233.69 225.771 233.433 227.031 232.92C228.291 232.407 229.411 231.683 230.391 230.75L232.141 232.85ZM253.659 236H240.149V233.27H245.609V212.48H240.569V209.75H247.919L247.989 212.27C248.036 213.063 248.083 213.787 248.129 214.44C248.176 215.047 248.223 215.747 248.269 216.54C249.203 214.347 250.673 212.597 252.679 211.29C254.733 209.937 257.089 209.237 259.749 209.19C262.129 209.19 264.066 209.843 265.559 211.15C267.053 212.41 267.916 214.09 268.149 216.19C269.176 214.09 270.669 212.41 272.629 211.15C274.636 209.89 276.923 209.237 279.489 209.19C282.103 209.19 284.133 209.913 285.579 211.36C287.073 212.807 287.866 214.697 287.959 217.03V233.27H293.139V236H279.699V233.27H285.089V217.8C284.996 216.26 284.436 214.953 283.409 213.88C282.429 212.76 280.959 212.153 278.999 212.06C277.599 212.06 276.246 212.293 274.939 212.76C273.679 213.227 272.559 213.857 271.579 214.65C270.599 215.49 269.806 216.493 269.199 217.66C268.593 218.78 268.266 220.017 268.219 221.37V233.27H273.399V236H259.889V233.27H265.349V217.8C265.256 216.26 264.696 214.953 263.669 213.88C262.689 212.76 261.219 212.153 259.259 212.06C257.813 212.06 256.436 212.293 255.129 212.76C253.823 213.227 252.703 213.88 251.769 214.72C250.743 215.607 249.926 216.633 249.319 217.8C248.759 218.967 248.479 220.25 248.479 221.65V233.27H253.659V236ZM311.77 211.99C309.996 211.99 308.363 212.363 306.87 213.11C305.423 213.857 304.21 214.86 303.23 216.12C302.296 217.333 301.643 218.71 301.27 220.25C300.896 221.743 300.873 223.283 301.2 224.87C304.373 223.61 307.523 222.373 310.65 221.16C313.823 219.9 316.996 218.64 320.17 217.38C319.33 215.793 318.163 214.51 316.67 213.53C315.223 212.503 313.59 211.99 311.77 211.99ZM320.94 232.85C319.726 233.97 318.35 234.857 316.81 235.51C315.27 236.163 313.59 236.49 311.77 236.49C309.856 236.49 308.06 236.14 306.38 235.44C304.746 234.74 303.3 233.76 302.04 232.5C300.78 231.24 299.8 229.793 299.1 228.16C298.4 226.527 298.05 224.753 298.05 222.84C298.05 220.973 298.4 219.2 299.1 217.52C299.8 215.84 300.78 214.393 302.04 213.18C303.3 211.967 304.746 211.01 306.38 210.31C308.06 209.563 309.856 209.19 311.77 209.19C313.216 209.19 314.593 209.447 315.9 209.96C317.206 210.427 318.373 211.127 319.4 212.06C320.38 212.9 321.243 213.927 321.99 215.14C322.736 216.307 323.343 217.59 323.81 218.99C320.17 220.437 316.53 221.86 312.89 223.26C309.296 224.66 305.68 226.107 302.04 227.6C302.88 229.42 304.163 230.89 305.89 232.01C307.616 233.13 309.576 233.69 311.77 233.69C313.216 233.69 314.57 233.433 315.83 232.92C317.09 232.407 318.21 231.683 319.19 230.75L320.94 232.85ZM342.458 236H328.948V233.27H334.408V212.48H329.368V209.75H336.718L336.928 213.46C336.975 214.253 336.998 214.767 336.998 215C336.998 215.233 337.021 215.747 337.068 216.54C337.581 215.373 338.235 214.347 339.028 213.46C339.868 212.527 340.801 211.757 341.828 211.15C342.808 210.543 343.811 210.077 344.838 209.75C345.911 209.423 346.985 209.237 348.058 209.19L347.918 212.06C346.518 212.06 345.188 212.293 343.928 212.76C342.715 213.18 341.641 213.787 340.708 214.58C339.635 215.373 338.795 216.4 338.188 217.66C337.581 218.873 337.278 220.203 337.278 221.65V233.27H342.458V236ZM385.702 236H377.932V233.13C377.932 232.57 377.932 232.057 377.932 231.59C377.932 231.077 377.932 230.517 377.932 229.91C377.606 230.75 377.092 231.567 376.392 232.36C375.739 233.107 374.946 233.783 374.012 234.39C373.032 235.043 371.912 235.557 370.652 235.93C369.439 236.303 368.132 236.49 366.732 236.49C364.772 236.49 362.952 236.14 361.272 235.44C359.639 234.74 358.192 233.76 356.932 232.5C355.672 231.24 354.692 229.793 353.992 228.16C353.292 226.527 352.942 224.753 352.942 222.84C352.942 221.02 353.292 219.27 353.992 217.59C354.692 215.91 355.672 214.44 356.932 213.18C358.192 211.967 359.639 211.01 361.272 210.31C362.952 209.563 364.772 209.19 366.732 209.19C369.486 209.19 371.842 209.867 373.802 211.22C375.762 212.527 377.139 214.09 377.932 215.91C377.932 214.93 377.956 213.927 378.002 212.9C378.049 211.827 378.119 210.777 378.212 209.75H380.522V233.27H385.702V236ZM366.732 211.99C365.146 211.99 363.676 212.27 362.322 212.83C360.969 213.39 359.826 214.183 358.892 215.21C357.912 216.19 357.142 217.333 356.582 218.64C356.069 219.947 355.812 221.347 355.812 222.84C355.812 224.427 356.116 225.897 356.722 227.25C357.329 228.603 358.169 229.77 359.242 230.75C360.222 231.683 361.342 232.407 362.602 232.92C363.862 233.433 365.239 233.69 366.732 233.69C368.226 233.69 369.626 233.433 370.932 232.92C372.239 232.36 373.382 231.59 374.362 230.61C375.389 229.63 376.182 228.487 376.742 227.18C377.349 225.827 377.652 224.38 377.652 222.84C377.652 221.3 377.349 219.877 376.742 218.57C376.182 217.217 375.412 216.05 374.432 215.07C373.406 214.09 372.239 213.343 370.932 212.83C369.626 212.27 368.226 211.99 366.732 211.99ZM404.118 236H390.608V233.27H395.788V186.23H390.818V183.5H398.658V233.27H404.118V236ZM128.31 306H93.45V303.27H98.28V259.73H93.45V257H106.96V259.73H101.15V303.27H125.58V295.22H128.31V306ZM165.995 306H158.225V303.13C158.225 302.57 158.225 302.057 158.225 301.59C158.225 301.077 158.225 300.517 158.225 299.91C157.898 300.75 157.385 301.567 156.685 302.36C156.032 303.107 155.238 303.783 154.305 304.39C153.325 305.043 152.205 305.557 150.945 305.93C149.732 306.303 148.425 306.49 147.025 306.49C145.065 306.49 143.245 306.14 141.565 305.44C139.932 304.74 138.485 303.76 137.225 302.5C135.965 301.24 134.985 299.793 134.285 298.16C133.585 296.527 133.235 294.753 133.235 292.84C133.235 291.02 133.585 289.27 134.285 287.59C134.985 285.91 135.965 284.44 137.225 283.18C138.485 281.967 139.932 281.01 141.565 280.31C143.245 279.563 145.065 279.19 147.025 279.19C149.778 279.19 152.135 279.867 154.095 281.22C156.055 282.527 157.432 284.09 158.225 285.91C158.225 284.93 158.248 283.927 158.295 282.9C158.342 281.827 158.412 280.777 158.505 279.75H160.815V303.27H165.995V306ZM147.025 281.99C145.438 281.99 143.968 282.27 142.615 282.83C141.262 283.39 140.118 284.183 139.185 285.21C138.205 286.19 137.435 287.333 136.875 288.64C136.362 289.947 136.105 291.347 136.105 292.84C136.105 294.427 136.408 295.897 137.015 297.25C137.622 298.603 138.462 299.77 139.535 300.75C140.515 301.683 141.635 302.407 142.895 302.92C144.155 303.433 145.532 303.69 147.025 303.69C148.518 303.69 149.918 303.433 151.225 302.92C152.532 302.36 153.675 301.59 154.655 300.61C155.682 299.63 156.475 298.487 157.035 297.18C157.642 295.827 157.945 294.38 157.945 292.84C157.945 291.3 157.642 289.877 157.035 288.57C156.475 287.217 155.705 286.05 154.725 285.07C153.698 284.09 152.532 283.343 151.225 282.83C149.918 282.27 148.518 281.99 147.025 281.99ZM170.901 306V303.27H176.081V256.23H171.181V253.5H178.951V282.41C178.951 283.11 178.951 283.67 178.951 284.09C178.951 284.463 178.928 285 178.881 285.7C179.161 284.907 179.628 284.137 180.281 283.39C180.935 282.597 181.751 281.873 182.731 281.22C183.711 280.613 184.808 280.123 186.021 279.75C187.235 279.377 188.518 279.19 189.871 279.19C191.785 279.19 193.581 279.563 195.261 280.31C196.941 281.01 198.411 281.967 199.671 283.18C200.885 284.393 201.841 285.84 202.541 287.52C203.288 289.2 203.661 290.973 203.661 292.84C203.661 294.753 203.288 296.527 202.541 298.16C201.841 299.793 200.885 301.24 199.671 302.5C198.411 303.76 196.941 304.74 195.261 305.44C193.581 306.14 191.785 306.49 189.871 306.49C188.471 306.49 187.141 306.303 185.881 305.93C184.668 305.557 183.595 305.043 182.661 304.39C181.681 303.783 180.841 303.107 180.141 302.36C179.441 301.567 178.951 300.75 178.671 299.91C178.671 300.517 178.671 301.077 178.671 301.59C178.671 302.057 178.671 302.57 178.671 303.13V306H170.901ZM189.871 281.99C188.285 281.99 186.815 282.27 185.461 282.83C184.155 283.39 183.011 284.183 182.031 285.21C181.051 286.19 180.281 287.333 179.721 288.64C179.208 289.947 178.951 291.347 178.951 292.84C178.951 294.38 179.231 295.827 179.791 297.18C180.398 298.487 181.215 299.63 182.241 300.61C183.221 301.59 184.365 302.36 185.671 302.92C186.978 303.433 188.378 303.69 189.871 303.69C191.411 303.69 192.835 303.41 194.141 302.85C195.448 302.29 196.615 301.52 197.641 300.54C198.575 299.56 199.321 298.417 199.881 297.11C200.441 295.803 200.721 294.38 200.721 292.84C200.721 291.3 200.441 289.853 199.881 288.5C199.321 287.147 198.528 285.98 197.501 285C196.521 284.067 195.378 283.343 194.071 282.83C192.765 282.27 191.365 281.99 189.871 281.99ZM224.597 303.76C223.897 304.6 222.987 305.277 221.867 305.79C220.794 306.303 219.464 306.56 217.877 306.56C216.384 306.56 214.914 306.373 213.467 306C212.067 305.673 210.831 304.997 209.757 303.97V298.86H212.347V302.43C213.234 302.99 214.144 303.363 215.077 303.55C216.011 303.69 216.991 303.76 218.017 303.76C218.717 303.76 219.394 303.667 220.047 303.48C220.701 303.247 221.307 302.92 221.867 302.5C222.381 302.08 222.777 301.59 223.057 301.03C223.384 300.423 223.547 299.7 223.547 298.86C223.547 297.647 223.244 296.713 222.637 296.06C222.031 295.407 221.237 294.893 220.257 294.52C219.324 294.1 218.297 293.727 217.177 293.4C216.057 293.073 215.007 292.677 214.027 292.21C213.047 291.743 212.231 291.09 211.577 290.25C210.971 289.363 210.667 288.15 210.667 286.61C210.667 285.35 210.877 284.277 211.297 283.39C211.764 282.503 212.371 281.757 213.117 281.15C213.864 280.543 214.727 280.1 215.707 279.82C216.687 279.493 217.597 279.33 218.437 279.33C219.044 279.33 219.627 279.377 220.187 279.47C220.747 279.517 221.401 279.657 222.147 279.89C222.754 280.123 223.337 280.403 223.897 280.73C224.457 281.01 224.971 281.36 225.437 281.78V286.89H222.777V283.25C222.124 282.877 221.447 282.597 220.747 282.41C220.047 282.223 219.301 282.13 218.507 282.13C217.901 282.13 217.271 282.223 216.617 282.41C216.011 282.55 215.474 282.783 215.007 283.11C214.587 283.483 214.237 283.95 213.957 284.51C213.677 285.07 213.537 285.747 213.537 286.54C213.537 287.567 213.864 288.383 214.517 288.99C215.217 289.55 216.034 290.017 216.967 290.39C217.947 290.81 218.974 291.207 220.047 291.58C221.167 291.907 222.217 292.35 223.197 292.91C224.131 293.47 224.901 294.193 225.507 295.08C226.161 295.967 226.487 297.157 226.487 298.65C226.487 299.49 226.324 300.377 225.997 301.31C225.717 302.197 225.251 303.013 224.597 303.76Z" fill="white"/>
<path d="M309.401 54.8579L357.268 60.4732L344.449 87.9399L309.401 54.8579Z" fill="white"/>
<defs>
<linearGradient id="paint0_linear_6_39" x1="0" y1="500" x2="500" y2="0" gradientUnits="userSpaceOnUse">
<stop stop-color="#FF7C26" stop-opacity="0"/>
</linearGradient>
</defs>
</svg>
